<svg width="24" height="24" viewBox="0 0 24 24" fill="none" xmlns="http://www.w3.org/2000/svg">
<g clip-path="url(#clip0_419_139)">
<path d="M19.8365 9.1659C20.0043 8.68061 19.7772 8.14714 19.3112 7.93158L17.8511 7.25622C17.7811 7.22386 17.731 7.1598 17.7164 7.08411C17.6771 6.87921 17.4127 6.81923 17.2887 6.98707L11.6698 14.596C11.3429 15.0387 10.7198 15.134 10.2754 14.8094L7.71954 12.9418C7.44087 12.7382 7.38003 12.3473 7.58364 12.0686C7.78725 11.7899 8.17821 11.7291 8.45688 11.9327L10.0041 13.0632C10.4482 13.3877 11.0711 13.2926 11.3982 12.8502L17.2397 4.94854C17.2728 4.90385 17.2855 4.84735 17.2749 4.7928C17.2555 4.69288 17.1636 4.62388 17.0623 4.63311L15.1268 4.8093C14.8063 4.83848 14.4913 4.71163 14.2805 4.46847L13.482 3.54743C13.1456 3.15935 12.5699 3.08924 12.1501 3.38525L11.1537 4.08794C10.8908 4.27335 10.5547 4.32095 10.2507 4.21584L9.09887 3.8177C8.61358 3.64995 8.08011 3.877 7.86456 4.34303L7.35278 5.4495C7.21771 5.74152 6.95038 5.95072 6.63445 6.01162L5.43847 6.24218C4.934 6.33943 4.5853 6.80312 4.63188 7.31476L4.74228 8.52748C4.77145 8.84798 4.6446 9.16293 4.40144 9.37373L3.4804 10.1722C3.09232 10.5086 3.02221 11.0844 3.31822 11.5041L4.02091 12.5005C4.20632 12.7635 4.25392 13.0995 4.14881 13.4036L3.75067 14.5554C3.58292 15.0407 3.80997 15.5741 4.276 15.7897L5.38247 16.3015C5.6745 16.4365 5.88369 16.7039 5.9446 17.0198L6.17515 18.2158C6.2724 18.7202 6.73609 19.0689 7.24773 19.0224L8.46045 18.912C8.78095 18.8828 9.0959 19.0096 9.3067 19.2528L10.1052 20.1738C10.4416 20.5619 11.0173 20.632 11.4371 20.336L12.4335 19.6333C12.6964 19.4479 13.0325 19.4003 13.3365 19.5054L14.4883 19.9036C14.9736 20.0713 15.5071 19.8443 15.7227 19.3782L16.2344 18.2718C16.3695 17.9797 16.6368 17.7705 16.9528 17.7096L18.1487 17.4791C18.6532 17.3818 19.0019 16.9182 18.9553 16.4065L18.8449 15.1938C18.8158 14.8733 18.9426 14.5583 19.1858 14.3475L20.1068 13.5491C20.4949 13.2126 20.565 12.6369 20.269 12.2172L19.5663 11.2207C19.3809 10.9578 19.3333 10.6218 19.4384 10.3177L19.8365 9.1659Z" fill="#00AEDA"/>
</g>
<defs>
<clipPath id="clip0_419_139">
<rect width="20" height="20" fill="white" transform="translate(0.374817 3.51733) rotate(-8.84557)"/>
</clipPath>
</defs>
</svg>
