<svg width="36" height="36" viewBox="0 0 36 36" fill="none" xmlns="http://www.w3.org/2000/svg">
<path fill-rule="evenodd" clip-rule="evenodd" d="M31.1172 6.51893C30.9985 4.76274 29.5363 3.375 27.75 3.375H8.25L8.01893 3.38279C6.26274 3.50153 4.875 4.9637 4.875 6.75V29.25L4.88279 29.4811C5.00153 31.2373 6.4637 32.625 8.25 32.625H27.75L27.9811 32.6172C29.7373 32.4985 31.125 31.0363 31.125 29.25V6.75L31.1172 6.51893ZM7.13527 6.59734C7.20299 6.09815 7.59815 5.70299 8.09734 5.63527L8.25 5.625H27.75L27.9027 5.63527C28.4518 5.70976 28.875 6.18046 28.875 6.75V29.25L28.8647 29.4027C28.7902 29.9518 28.3195 30.375 27.75 30.375H8.25L8.09734 30.3647C7.54823 30.2902 7.125 29.8195 7.125 29.25V6.75L7.13527 6.59734Z" fill="#0C0933"/>
<path d="M24.9477 23.625C25.569 23.625 26.0727 24.1287 26.0727 24.75C26.0727 25.3195 25.6495 25.7902 25.1004 25.8647L24.9477 25.875H18.9477C18.3264 25.875 17.8227 25.3713 17.8227 24.75C17.8227 24.1805 18.246 23.7098 18.7951 23.6353L18.9477 23.625H24.9477Z" fill="#0C0933"/>
<path d="M13.4986 22.6405C13.9609 22.2254 14.6722 22.2636 15.0873 22.7259C15.4647 23.1461 15.4675 23.7722 15.1175 24.1944L15.002 24.3146L12.9977 26.1146C12.6128 26.4602 12.0491 26.4947 11.6285 26.2181L11.4941 26.1144L10.4984 25.2198C10.0363 24.8045 9.99823 24.0932 10.4135 23.6311C10.791 23.2109 11.4132 23.1413 11.8704 23.4441L12.0022 23.5461L12.246 23.7645L13.4986 22.6405Z" fill="#0C0933"/>
<path d="M24.9477 17.625C25.569 17.625 26.0727 18.1287 26.0727 18.75C26.0727 19.3195 25.6495 19.7902 25.1004 19.8647L24.9477 19.875H18.9477C18.3264 19.875 17.8227 19.3713 17.8227 18.75C17.8227 18.1805 18.246 17.7098 18.7951 17.6353L18.9477 17.625H24.9477Z" fill="#0C0933"/>
<path d="M22.5 9.375C23.1213 9.375 23.625 9.87868 23.625 10.5C23.625 11.0695 23.2018 11.5402 22.6527 11.6147L22.5 11.625H13.5C12.8787 11.625 12.375 11.1213 12.375 10.5C12.375 9.93046 12.7982 9.45976 13.3473 9.38527L13.5 9.375H22.5Z" fill="#0C0933"/>
<path d="M13.4986 16.6405C13.9609 16.2254 14.6722 16.2636 15.0873 16.7259C15.4647 17.1461 15.4675 17.7722 15.1175 18.1944L15.002 18.3146L12.9977 20.1146C12.6128 20.4602 12.0491 20.4947 11.6285 20.2181L11.4941 20.1144L10.4984 19.2198C10.0363 18.8045 9.99823 18.0932 10.4135 17.6311C10.791 17.2109 11.4132 17.1413 11.8704 17.4441L12.0022 17.5461L12.246 17.7645L13.4986 16.6405Z" fill="#0C0933"/>
</svg>
