<svg width="36" height="36" viewBox="0 0 36 36" fill="none" xmlns="http://www.w3.org/2000/svg">
<path d="M28.5 15.375C30.6938 15.375 32.4876 17.0876 32.6175 19.2487L32.625 19.5V21.375C32.625 21.9963 32.1213 22.5 31.5 22.5C30.9305 22.5 30.4598 22.0768 30.3853 21.5277L30.375 21.375V19.5C30.375 18.5292 29.6372 17.7307 28.6917 17.6347L28.5 17.625H27C26.3787 17.625 25.875 17.1213 25.875 16.5C25.875 15.9305 26.2982 15.4598 26.8473 15.3853L27 15.375H28.5Z" fill="#0C0933"/>
<path d="M16.5 21.3335C17.0695 21.3335 17.5402 21.7567 17.6147 22.3058L17.625 22.4585V28.5001C17.625 29.4709 18.3628 30.2694 19.3083 30.3654L19.5 30.3751H28.5C29.4708 30.3751 30.2693 29.6372 30.3653 28.6918L30.375 28.5001V26.6251C30.375 26.0037 30.8787 25.5001 31.5 25.5001C32.0695 25.5001 32.5402 25.9233 32.6147 26.4724L32.625 26.6251V28.5001C32.625 30.6939 30.9124 32.4877 28.7513 32.6175L28.5 32.6251H19.5C17.3062 32.6251 15.5124 30.9125 15.3825 28.7513L15.375 28.5001V22.4585C15.375 21.8372 15.8787 21.3335 16.5 21.3335Z" fill="#0C0933"/>
<path fill-rule="evenodd" clip-rule="evenodd" d="M30.375 20.25H32.25C33.2855 20.25 34.125 21.0895 34.125 22.125V25.875C34.125 26.9105 33.2855 27.75 32.25 27.75H30.375C28.4182 27.75 26.7948 26.246 26.6346 24.2607L26.625 24C26.625 21.9289 28.3039 20.25 30.375 20.25ZM30.375 25.5H31.875V22.5H30.375C29.6057 22.5 28.9717 23.0791 28.8844 23.7887L28.8741 23.9546L28.88 24.1243C28.9428 24.898 29.5926 25.5 30.375 25.5Z" fill="#0C0933"/>
<path fill-rule="evenodd" clip-rule="evenodd" d="M7.5 3.375H19.5C21.7782 3.375 23.625 5.22183 23.625 7.5V15C23.625 17.2782 21.7782 19.125 19.5 19.125H7.5C5.22183 19.125 3.375 17.2782 3.375 15V7.5C3.375 5.22183 5.22183 3.375 7.5 3.375ZM19.5 5.625H7.5C6.46447 5.625 5.625 6.46447 5.625 7.5V15C5.625 16.0355 6.46447 16.875 7.5 16.875H19.5C20.5355 16.875 21.375 16.0355 21.375 15V7.5C21.375 6.46447 20.5355 5.625 19.5 5.625Z" fill="#0C0933"/>
<path d="M22.5 9.375C23.1213 9.375 23.625 9.87868 23.625 10.5C23.625 11.0695 23.2018 11.5402 22.6527 11.6147L22.5 11.625H4.5C3.87868 11.625 3.375 11.1213 3.375 10.5C3.375 9.93046 3.79823 9.45976 4.34734 9.38527L4.5 9.375H22.5Z" fill="#0C0933"/>
<path d="M27.0005 3.4165C30.0068 3.4165 32.4624 5.77505 32.6177 8.74277L32.6255 9.0415V12.0415C32.6255 12.6628 32.1218 13.1665 31.5005 13.1665C30.9309 13.1665 30.4602 12.7433 30.3857 12.1942L30.3755 12.0415V9.0415C30.3755 7.17754 28.8644 5.6665 27.0005 5.6665C26.3791 5.6665 25.8755 5.16282 25.8755 4.5415C25.8755 3.92018 26.3791 3.4165 27.0005 3.4165Z" fill="#0C0933"/>
<path d="M4.50046 21.375C5.07 21.375 5.54069 21.7982 5.61519 22.3473L5.62546 22.5V27C5.62546 28.7863 7.0132 30.2485 8.76938 30.3672L9.00046 30.375H12.0005C12.6218 30.375 13.1255 30.8787 13.1255 31.5C13.1255 32.0695 12.7022 32.5402 12.1531 32.6147L12.0005 32.625H9.00046C5.99407 32.625 3.53855 30.2665 3.38325 27.2987L3.37546 27V22.5C3.37546 21.8787 3.87914 21.375 4.50046 21.375Z" fill="#0C0933"/>
</svg>
