<svg width="36" height="36" viewBox="0 0 36 36" fill="none" xmlns="http://www.w3.org/2000/svg">
<path fill-rule="evenodd" clip-rule="evenodd" d="M15.4968 4.20158L15.7435 4.03189C17.2048 3.10127 19.1026 3.15918 20.5032 4.20158L20.9593 4.52381C23.2651 6.09317 25.9469 7.03317 28.7691 7.24821C30.0954 7.39323 31.1057 8.50385 31.125 9.85406V19.5313C31.125 24.7023 26.5686 28.8642 20.2223 32.0899C18.8293 32.802 17.1793 32.8034 15.7859 32.0941L14.8482 31.6036L13.9393 31.0988C8.57599 28.027 4.875 24.1813 4.875 19.5313L4.87512 9.83788C4.8943 8.50383 5.90463 7.3932 7.26794 7.24478C10.2413 7.01883 13.0919 5.96462 15.4968 4.20158ZM28.5616 9.48831C25.1692 9.23052 21.9168 8.02771 19.1665 6.01139C18.4742 5.49619 17.5259 5.49619 16.8336 6.01139L16.3431 6.35874C13.7003 8.16594 10.6335 9.24548 7.47544 9.48488C7.27808 9.50645 7.12774 9.67172 7.125 9.85406V19.5313C7.125 23.5221 11.1893 27.2346 16.8058 30.0885C17.5575 30.4712 18.4471 30.4704 19.2004 30.0853C24.8232 27.2274 28.875 23.5264 28.875 19.5313L28.8751 9.87023C28.8723 9.67172 28.7219 9.50646 28.5616 9.48831Z" fill="#0C0933"/>
<path d="M13.4548 19.4542C13.8544 19.055 14.4794 19.0189 14.9197 19.3458L15.0458 19.4548L17.2941 21.7048C17.7333 22.1443 17.733 22.8566 17.2935 23.2958C16.894 23.695 16.269 23.7311 15.8287 23.4042L15.7025 23.2952L13.4542 21.0452C13.015 20.6057 13.0153 19.8934 13.4548 19.4542Z" fill="#0C0933"/>
<path d="M21.75 19.125C22.3713 19.125 22.875 19.6287 22.875 20.25C22.875 20.8195 22.4518 21.2902 21.9027 21.3647L21.75 21.375H14.25C13.6287 21.375 13.125 20.8713 13.125 20.25C13.125 19.6805 13.5482 19.2098 14.0973 19.1353L14.25 19.125H21.75Z" fill="#0C0933"/>
<path d="M18.7065 12.7042C19.106 12.305 19.731 12.2689 20.1713 12.5958L20.2975 12.7048L22.5458 14.9548C22.985 15.3943 22.9847 16.1066 22.5452 16.5458C22.1456 16.945 21.5206 16.9811 21.0803 16.6542L20.9542 16.5452L18.7059 14.2952C18.2667 13.8557 18.267 13.1434 18.7065 12.7042Z" fill="#0C0933"/>
<path d="M21.75 14.625C22.3713 14.625 22.875 15.1287 22.875 15.75C22.875 16.3195 22.4518 16.7902 21.9027 16.8647L21.75 16.875H14.25C13.6287 16.875 13.125 16.3713 13.125 15.75C13.125 15.1805 13.5482 14.7098 14.0973 14.6353L14.25 14.625H21.75Z" fill="#0C0933"/>
</svg>
