<svg width="36" height="36" viewBox="0 0 36 36" fill="none" xmlns="http://www.w3.org/2000/svg">
<path fill-rule="evenodd" clip-rule="evenodd" d="M32.7884 13.7772C30.9084 7.16809 24.8713 2.60876 18 2.60876C11.1287 2.60876 5.09163 7.16809 3.21167 13.7772C1.3317 20.3863 4.06533 27.4405 9.90792 31.057C10.4362 31.384 11.1296 31.2208 11.4566 30.6925C11.7836 30.1642 11.6204 29.4708 11.0921 29.1438C6.10455 26.0566 3.77097 20.0347 5.37582 14.3928C6.98067 8.75087 12.1343 4.85876 18 4.85876C23.8658 4.85876 29.0194 8.75087 30.6242 14.3928C32.2291 20.0347 29.8955 26.0566 24.9079 29.1438C24.3796 29.4708 24.2164 30.1642 24.5434 30.6925C24.8705 31.2208 25.5638 31.384 26.0921 31.057C31.9347 27.4405 34.6684 20.3863 32.7884 13.7772ZM13.125 14.25C13.125 11.5576 15.3076 9.37502 18 9.37502C20.6924 9.37502 22.875 11.5576 22.875 14.25C22.875 16.9424 20.6924 19.125 18 19.125C15.3076 19.125 13.125 16.9424 13.125 14.25ZM20.625 14.25C20.625 12.8003 19.4498 11.625 18 11.625C16.5503 11.625 15.375 12.8003 15.375 14.25C15.375 15.6998 16.5503 16.875 18 16.875C19.4498 16.875 20.625 15.6998 20.625 14.25ZM25.7813 23.5505C25.0072 21.7745 23.2545 20.6259 21.3172 20.625H14.6834L14.3791 20.6346C12.5638 20.7486 10.9521 21.868 10.2187 23.5505C9.97048 24.1201 10.231 24.783 10.8005 25.0313C11.3701 25.2796 12.0331 25.0191 12.2813 24.4495L12.3785 24.25C12.8332 23.4085 13.7158 22.8755 14.684 22.875H21.3166L21.5383 22.8845C22.4909 22.9655 23.3319 23.562 23.7187 24.4495L23.7892 24.5854C24.0769 25.059 24.6774 25.2589 25.1996 25.0313C25.7691 24.783 26.0296 24.1201 25.7813 23.5505ZM18.6693 27.5956C18.2289 27.2688 17.6039 27.3051 17.2045 27.7045L14.2045 30.7045L14.0956 30.8307C13.7688 31.2711 13.8051 31.8961 14.2045 32.2955L14.3307 32.4044C14.7711 32.7312 15.3961 32.6949 15.7955 32.2955L18 30.0915L20.2045 32.2955L20.3307 32.4044C20.7711 32.7312 21.3961 32.6949 21.7955 32.2955C22.2349 31.8562 22.2349 31.1439 21.7955 30.7045L18.7955 27.7045L18.6693 27.5956Z" fill="#0C0933"/>
</svg>
