<svg width="24" height="24" viewBox="0 0 24 24" fill="none" xmlns="http://www.w3.org/2000/svg">
<g clip-path="url(#clip0_71_386)">
<rect width="24" height="24" rx="12" fill="#F93939"/>
<path fill-rule="evenodd" clip-rule="evenodd" d="M-3.2002 17.6001H30.3998V24.0001H-3.2002V17.6001Z" fill="#00B731"/>
<path fill-rule="evenodd" clip-rule="evenodd" d="M-3.2002 0H30.3998V6.4H-3.2002V0Z" fill="#03BCDB"/>
<path fill-rule="evenodd" clip-rule="evenodd" d="M0 8.0001H33.6V16.0001H0V8.0001ZM8 6.2641C7.7504 6.3521 7.48 6.4001 7.2 6.4001C5.8752 6.4001 4.8 5.3249 4.8 4.0001C4.8 2.6753 5.8752 1.6001 7.2 1.6001C7.48 1.6001 7.7504 1.6481 8 1.7361C7.0672 2.0657 6.4 2.9553 6.4 4.0001C6.4 5.0449 7.0672 5.9361 8 6.2641Z" fill="white"/>
<path opacity="0.5" fill-rule="evenodd" clip-rule="evenodd" d="M9.6001 3.2001H11.2001V4.8001H9.6001V3.2001ZM11.2001 1.6001H12.8001V3.2001H11.2001V1.6001ZM12.8001 3.2001H14.4001V4.8001H12.8001V3.2001ZM14.4001 1.6001H16.0001V3.2001H14.4001V1.6001ZM16.0001 3.2001H17.6001V4.8001H16.0001V3.2001ZM14.4001 4.8001H16.0001V6.4001H14.4001V4.8001ZM11.2001 4.8001H12.8001V6.4001H11.2001V4.8001Z" fill="#1A47B8"/>
<rect y="8" width="8" height="8" fill="white"/>
</g>
<defs>
<clipPath id="clip0_71_386">
<rect width="24" height="24" rx="12" fill="white"/>
</clipPath>
</defs>
</svg>
