<svg width="36" height="36" viewBox="0 0 36 36" fill="none" xmlns="http://www.w3.org/2000/svg">
<g clip-path="url(#clip0_825_9319)">
<path fill-rule="evenodd" clip-rule="evenodd" d="M17.5708 0C27.2355 0 35.1415 7.78632 35.1415 17.3048V17.8803C35.1415 27.3989 27.2355 35.1852 17.5708 35.1852C7.90596 35.1852 0 27.3989 0 17.8803V17.3048C0 7.79207 7.90596 0 17.5708 0ZM20.0132 22.9101C18.0908 22.9101 16.5307 24.4466 16.5307 26.34C16.5307 28.2333 18.0908 29.7699 20.0132 29.7699C21.9357 29.7699 23.4958 28.2333 23.4958 26.34C23.4958 24.4466 21.9357 22.9101 20.0132 22.9101ZM11.523 14.1685C9.60052 14.1685 8.04036 15.705 8.04036 17.5983C8.04036 19.4917 9.60052 21.0282 11.523 21.0282C13.4454 21.0282 15.0056 19.4917 15.0056 17.5983C15.0056 15.6992 13.4454 14.1685 11.523 14.1685ZM20.0132 5.42106C18.0908 5.42106 16.5307 6.95762 16.5307 8.85097C16.5307 10.7443 18.0908 12.2809 20.0132 12.2809C21.9357 12.2809 23.4958 10.7443 23.4958 8.85097C23.4958 6.95762 21.9357 5.42106 20.0132 5.42106ZM20.0132 14.1685C18.0908 14.1685 16.5307 15.705 16.5307 17.5983C16.5307 19.4917 18.0908 21.0282 20.0132 21.0282C21.9357 21.0282 23.4958 19.4917 23.4958 17.5983C23.4958 15.6992 21.9357 14.1685 20.0132 14.1685Z" fill="#00B6E4"/>
</g>
<defs>
<clipPath id="clip0_825_9319">
<rect width="35.1415" height="35.1852" fill="white"/>
</clipPath>
</defs>
</svg>